<svg width="119" height="118" viewBox="0 0 119 118" fill="none" xmlns="http://www.w3.org/2000/svg">
<path d="M118.29 59C118.29 26.4152 91.9643 0 59.4899 0C27.0156 0 0.689941 26.4152 0.689941 59C0.689941 91.5848 27.0156 118 59.4899 118C91.9643 118 118.29 91.5848 118.29 59Z" fill="#FF9431"/>
<path d="M61.4401 45.7329C51.9096 32.4559 36.602 24.5896 20.2997 24.5896L54.0314 72.0759C63.5472 85.4654 78.9283 93.4162 95.3139 93.4162H95.652L61.4401 45.7329Z" fill="white"/>
<path d="M54.5115 45.7336L20.2997 93.4098H20.6329C37.0234 93.4098 52.3996 85.459 61.9154 72.0695L95.652 24.5833C79.3497 24.5904 64.042 32.4566 54.5115 45.7336Z" fill="white"/>
<path fill-rule="evenodd" clip-rule="evenodd" d="M20.2997 93.4098H20.6329C21.9755 93.4098 23.3132 93.3567 24.6362 93.251C39.5028 92.071 53.1787 84.3621 61.9154 72.0695L95.652 24.5833C94.1918 24.584 92.7413 24.6474 91.3056 24.772C76.6546 26.0405 63.1894 33.6439 54.5115 45.7336L20.2997 93.4098ZM27.3362 89.4892C40.037 87.6642 51.5618 80.709 59.1225 70.0718L88.6156 28.5553C76.1255 30.4449 64.7918 37.2988 57.2948 47.7447C57.2948 47.7446 57.2948 47.7448 57.2948 47.7447L27.3362 89.4892Z" fill="#FF9431"/>
<path d="M74.0085 29.4804C73.9399 29.5156 73.8616 29.5508 73.793 29.5859C71.343 30.761 68.9959 32.1189 66.7664 33.6739C66.6292 33.7654 66.4968 33.8709 66.3596 33.9624C65.3992 34.6448 64.4585 35.3625 63.5471 36.1083C63.4001 36.228 63.2432 36.3476 63.0962 36.4672C62.1015 37.3045 61.1363 38.1769 60.2004 39.0916C60.0632 39.2253 59.9357 39.3731 59.7936 39.5067C59.1713 40.133 58.5588 40.7732 57.9659 41.4346C57.3485 40.7451 56.7018 40.0696 56.0501 39.4223C55.9521 39.3238 55.859 39.2183 55.7561 39.1198C53.752 37.1427 51.5812 35.3625 49.2978 33.7583C49.2635 33.7372 49.2292 33.7091 49.1998 33.688C46.9507 32.1189 44.5693 30.7398 42.1046 29.5578C42.0899 29.5508 42.0655 29.5438 42.0557 29.5367C35.3427 26.3353 27.929 24.5833 20.2899 24.5833L44.8584 59.1652L44.6772 59.4189C48.9745 60.2842 53.4138 60.7415 57.9659 60.7415C62.5131 60.7415 66.9526 60.2842 71.2548 59.4189L71.0686 59.1652L95.6421 24.5833C88.052 24.5904 80.6921 26.3142 74.0085 29.4804Z" fill="white"/>
</svg>
