<svg xmlns="http://www.w3.org/2000/svg" xmlns:xlink="http://www.w3.org/1999/xlink" width="325" height="310" fill="none" xmlns:v="https://vecta.io/nano"><style><![CDATA[.B{fill:#fff64d}.C{fill:#7f8206}]]></style><use xlink:href="#C" class="B"/><g style="mix-blend-mode:screen" opacity=".75"><use xlink:href="#C" fill="#000"/></g><mask id="A" maskUnits="userSpaceOnUse" x="11" y="9" width="303" height="292"><path d="M162.5 300.757c83.629 0 151.424-65.286 151.424-145.82S246.129 9.117 162.5 9.117 11.076 74.403 11.076 154.937s67.795 145.82 151.424 145.82z" fill="#fff"/></mask><g mask="url(#A)"><path fill="#22bdde" d="M0 0h325v310H0z"/></g><g fill="#34beda"><use xlink:href="#D"/><use xlink:href="#D"/><use xlink:href="#E"/><use xlink:href="#E"/><path d="M185.034 61.977c1.429 0 2.587-1.106 2.587-2.471s-1.158-2.471-2.587-2.471-2.587 1.106-2.587 2.471 1.158 2.471 2.587 2.471z"/><use xlink:href="#F"/><use xlink:href="#F"/><use xlink:href="#G"/><use xlink:href="#G"/><use xlink:href="#H"/></g><g fill="#9dfafd"><use xlink:href="#H"/><path d="M118 69c-11.046 0-20-8.507-20-19s8.954-19 20-19 20 8.507 20 19-8.954 19-20 19z" fill-opacity=".49"/><path d="M56.5 255c-4.694 0-8.5-3.582-8.5-8s3.806-8 8.5-8 8.5 3.582 8.5 8-3.806 8-8.5 8z"/></g><path d="M293.365 131.229c-.242.158-.77.447-2.146.886-2.23.668-4.48 1.084-6.911 1.301-1.257.114-1.982.118-2.42.071l-.5-1.411-.523-1.487-.053-.39v-.244c.685-.181 1.858-.412 3.974-.597l6.421-.091 2.171.268c.045.723.051 1.285-.013 1.694zm23.931.976c-.223-2.315-2.465-9.298-2.465-9.298-2.011-6.258-3.777-9.851-7.26-10.934-3.745-1.178-9.191-1.359-17.664-.607-10.252.887-15.996 3.089-18.14 6.908-.774 1.371-1.846 4.123-2.186 11.996-.221 5.029-.057 10.237.485 15.947 1.048 10.913 2.722 14.159 4.083 15.757 2.82 3.252 9.219 4.181 21.364 3.114l11.509-1.34 7.108-1.02 2.543-19.859-1.408-1.679c-1.112-.425-3.672.292-5.965.511-.246.004-12.122 1.881-12.122 1.881-1.509.118-3.26 1.571-3.028 3.949l.187.392-8.111.325c-.384-1.308-.763-3.171-1.035-4.753.673-.039 14.539-1.978 21.253-4.044 7.435-2.305 9.353-3.311 10.253-4.729.008-.032.032-.05.059-.093.043-.087.164-.169.193-.27 0 0-.097.11-.127.111.344-.55.568-1.265.474-2.265z" class="C"/><path d="M298.744 130.224l-.002-.059c-.238.939-1.718 1.843-4.338 2.661-2.42.719-4.955 1.201-7.626 1.442-2.856.258-4.33-.223-5.198-.556-2.628-1.111-2.075-7.457-1.871-7.942.404-.946 2.718-1.617 6.941-1.978a43.56 43.56 0 0 1 6.95-.082c2.333.171 5.089.693 5.266 2.509.165 1.757.246 2.598-.122 4.005zm14.121-8.508c-1.882-5.785-3.281-8.22-5.083-8.791-3.419-1.068-7.987-1.333-15.4-.686-8.805.769-13.951 2.528-15.457 5.202-.963 1.722-1.563 5.291-1.812 10.616-.212 4.999-.034 10.128.476 15.51.732 7.591 1.878 12.267 3.357 14.033 1.922 2.19 8.051 2.82 18.42 1.926 3.309-.296 7.08-.755 11.354-1.334l4.579-.648 1.873-14.901c-.593-.214-15.443 1.686-15.413 1.996.027.194.61.941.859 1.65.251.632.291 1.491.315 1.686.032.327-.028.465-.211.477-.659.134-1.48.205-2.42.29-3.033.265-7.101.413-12.175.47-1.218-1.658-2.282-8.271-2.45-9.882-.019-.396-.059-.794-.042-1.241 1.561-.01 3.251-.093 4.991-.244 6.097-.53 12.426-1.814 18.931-3.814 5.901-1.828 7.86-2.744 7.615-3.321.07.071.06.004.024-.331-.234-2.468-.906-4.085-2.331-8.663z" class="B"/><path d="M247.4 127.299l-.965-.293c-.581-1.279-1.212-3.059-1.688-6.12-.907-5.802-.428-7.829-.192-8.453.357-.183 1.114-.443 2.497-.709l1.012 8.242c.396 2.617.899 5.135 1.45 6.537l.381 1.123-2.495-.327zm22.798 1.133l-.409-2.326c-.886-5.654-1.63-14.668-1.496-16.817.282-5.469.176-9.466-.317-12.594l-.322-2.214-2.299-.478c-3.321-.707-8.197-.455-15.326.754-1.078.152-2.822 1.042-3.092 4.089-1.344.153-3.116.27-5.863.284-4.93.065-7.673.203-9.245.425-6.167.878-8.043 3.831-8.504 6.161-2.05 9.959-2.686 17.031-1.965 21.613.761 4.898 3.105 8.895 6.975 11.891 2.152 1.7 5.993 2.161 13.27 1.582l10.84-1.3c.727 4.816.812 8.633.402 11.633-1.364.491-3.752 1.084-5.834 1.448 1.508-4.723 1.561-5.027 1.425-5.878l-.419-2.651-3.018-.093-11.137-.563c-3.817-.244-5.633-.305-6.558 1.791-.934 1.741-1.142 4.126-.619 7.532.432 2.801 1.361 6.126 2.873 10.53 2.201 6.052 2.782 7.684 5.774 7.267 1.578-.282 5.091-1.062 18.17-4.983 16.76-4.998 17.97-6.251 18.69-7.708 1.298-1.933 2.14-5.583.39-16.895l-2.386-12.5z" class="C"/><path d="M256.374 128.395c-2.796.212-5.331.098-7.687-.406-.993-.228-1.931-.522-2.737-.814-1.089-1.965-1.959-4.733-2.516-8.267-.885-5.724-.712-9.423.544-11.127 1.268-1.131 3.865-1.796 7.848-2.125.314-.044.461.906.565 2.753.077 1.401 1.176 11.587 2.312 14.496 1.087 2.87 1.671 4.58 1.761 5.124.038.226-.034.352-.09.366zm12.55-1.775c-1.04-4.966-2.142-17.042-1.976-19.97.244-4.926.034-8.373-.434-11.436-2.928-.622-7.468-.825-13.848.258-.311.048-.494 3.751-.821 3.79-1.819.378-4.749.617-8.73.65-4.341.055-7.301.179-8.768.386-3.388.478-5.31 1.66-5.689 3.591-1.939 9.469-2.578 16.315-1.92 20.511.631 4.06 2.52 7.357 5.746 9.843 1.363 1.081 5 1.339 10.852.888 2.831-.234 7.41-.754 13.758-1.662.21-.028.403.92.705 2.854.925 5.966 1.023 10.652.307 14.188-.224 1.117-7.035 2.614-9.668 2.994-.927.13-2.012.233-3.067.195-1.074.038-1.514.04-1.339.018.193-.03.727-1.501 1.727-4.404.931-2.914 1.398-4.43 1.376-4.604-.192.024-4.965-.141-7.068-.26l-7.702-.427c-.642 1.134-.732 3.063-.302 5.779.427 2.764 1.382 6.077 2.735 9.971 1.237 3.386 1.871 5.11 2.056 5.072 2.208-.376 8.075-1.995 17.673-4.842 10.662-3.195 16.289-5.271 16.719-6.178 1.312-1.683 1.289-6.686.011-14.884-.491-3.227-1.27-7.345-2.333-12.321z" class="B"/><path d="M225.234 135.753c-1.846-8.272-4.234-12.684-7.769-14.311-1.384-.693-4.038-1.463-11.734-1.156-4.056.175-7.546.577-10.755 1.144-.14-.835-1.624-7.073-1.624-7.073l-3.394 1.359-14.443 5.742.777 3.148.608 1.995c.938 4.221 1.523 12.221 1.74 23.797l.342 19.772s-.683 3.231 4.302 2.145c3.328-.732 11.273-2.862 16.194-4.211 2.633-.526 3.103-5.391 3.103-5.391l-.953-3.851-2.443-12.727c-.485-3.13-.706-4.983-.806-6.122l4.738-1.251c.816 2.608 1.772 6.075 2.784 10.117l1.62 7.458 1.087 4.639c1.136 3.642 5.218 2.822 7.184 2.409 4.119-.838 7-1.663 9.021-2.567 2.592-1.125 2.703-3.89 2.363-10.424-.302-5.291-.96-10.21-1.942-14.641z" class="C"/><path d="M223.953 135.004c-1.548-6.934-3.583-10.743-6.274-12.228-1.576-.761-4.927-1.824-10.029-1.633-5.138.228-13.349 1.638-13.37 1.792-.202-1.765-1.761-6.429-1.631-6.774-4.719 2.047-8.19 3.552-11.358 4.645.285.652.523 1.516.753 2.545 1.008 4.43 1.618 12.577 1.835 24.409l.31 18.898c6.646-1.891 12.435-3.384 17.334-4.585-.217-.392-.656-2.102-1.322-5.118-.987-4.359-1.808-8.619-2.489-12.898-.803-5.113-1.088-8.137-.767-9.092l10.24-2.741c.982 2.571 2.29 6.984 3.859 13.344 1.44 5.862 2.029 9.92 2.652 11.899.145.436.381.764 3.235.189 3.675-.75 6.463-1.516 8.292-2.334.563-.24.678-2.718.448-7.343-.278-4.887-.71-8.492-1.718-12.975z" class="B"/><g class="C"><path d="M99.315 154.584c-.984-4.845-2.939-10.802-6.471-15.614-3.722-5.107-11.175-8.748-21.498-11.216l-14.695-3.203-9.028-1.913c-6.054-1.365-7.069-1.498-8.387-3.26s-.087-4.979 5.691-6.041c6.897-1.28 16.913-.25 29.854 3.06 1.585.399 3.209.84 4.883 1.313l5.861-7.969-4.236-30.156-4.164-.355c-5.008-.437-10.027-.55-15.042-.392-8.019.246-16.022 1.19-23.926 2.65-8.575 1.589-15.304 3.829-19.986 6.695l-.304.2-.291.221c-5.236 4.269-10.888 12.417-7.956 26.868 1.155 5.7 3.369 11.079 6.556 16.04.53.825 1.076 1.638 1.657 2.438 3.694 4.952 10.369 8.58 19.903 10.838 0 0 6.193 1.491 12.554 2.61s16.182.626 16.182 4.089c0 1.728-3.724 3.175-11.586 4.599-7.588 1.426-16.467 1.688-26.381.845l-7.62 7.068.568 3.352 5.012 29.533 22.236-4.995 28.724-6.457c7.318-1.596 13.274-5.285 17.628-10.981 4.281-5.595 5.759-12.471 4.264-19.866z"/><path d="M124.379 115.688c-1.869.807-3.787 1.473-5.782 1.792-1.676.258-2.924.171-3.573-.169l-.757-1.749-1.282-4.978c-.315-1.838-.273-2.543-.245-2.88.821-.459 2.544-1.168 6.031-1.729 2.384-.353 3.564-.227 4.151-.101.23.595.577 1.812 1.015 4.361.538 3.187.51 4.712.442 5.453zm8.577-22.533c-16.35-3.717-43.875 4.568-44.938 5.811l-4.015 4.997 4.936 24.804c3.063 17.956 3.645 24.488 3.585 26.818l-.083 4.253 18.045-2.364 4.593-6.983c-.117.148-6.72-19.26-6.72-19.26 5.332.264 9.706.363 15.976-.616 6.619-1.035 11.277-2.266 14.212-3.753 2.732-1.343 3.058-4.641 3.166-7.621.047-3.116-.095-6.356-.653-9.662-1.523-8.899-3.883-15.466-8.104-16.424zm82.321 36.93c-.427-.28-.859-.412-1.299-.398-1.538.061-2.622 2.015-2.371 4.276.174 1.576.944 2.982 1.995 3.662.427.276.861.406 1.295.394 1.537-.053 2.626-2.013 2.375-4.272-.177-1.574-.938-2.975-1.995-3.662zm-24.571-6.018c-.206-.132-.417-.192-.625-.184-.742.024-1.273.967-1.146 2.061.085.76.453 1.44.963 1.769.207.134.421.201.628.191.74-.026 1.263-.971 1.146-2.059-.083-.768-.453-1.444-.966-1.778zm1.677 26.004c-.562-.372-1.142-.547-1.721-.526-2.044.081-3.488 2.675-3.151 5.673.231 2.096 1.246 3.969 2.647 4.871.568.375 1.146.546 1.723.524 2.041-.08 3.492-2.669 3.154-5.667-.232-2.097-1.247-3.963-2.652-4.875z"/><path d="M163.497 118.697c-.545 1.602-2.119 5.173-6.593 13.115-.574 1.023-1.159 1.692-3.422.985-1.31-.402-2.528-1.119-3.677-1.956-.051-.505-.117-1.58.158-3.811.359-3.017 1.144-6.272 2.282-9.621.814-2.395 1.463-3.664 1.911-4.387l.439.089 4.831 1.923c.06.013 3.033 1.148 4.542 1.723-.021.382-.129.956-.471 1.94zm17.657-8.927c-1.299-2.563-21.683-14.324-36.787-9.169-2.962 1.18-5.284 4.704-7.594 11.446-1.514 4.454-2.851 9.936-3.975 16.265-1.007 5.88-1.501 10.178-1.477 13.128.045 2.51 1.565 4.862 4.721 7.213 2.601 1.947 5.578 3.42 9.125 4.521 7.003 2.173 12.99 1.901 17.8-.78 3.47-1.948 6.927-5.529 10.563-10.959 3.26-4.835 5.865-10.074 7.709-15.526 2.647-7.789 2.628-12.924-.074-16.147l-.011.008z"/></g><path d="M169.861 118.795c-.859 2.516-3.139 7.076-6.83 13.639-1.491 2.649-3.896 3.485-7.263 2.443a15.59 15.59 0 0 1-5.167-2.748c-.788-.601-1.009-2.722-.575-6.302.406-3.37 1.261-6.821 2.427-10.221 1.116-3.297 2.237-5.446 3.321-6.47.379-.357 1.427-.333 3.105.185 1.017.315 2.708.98 5.157 2.025 2.382.953 4.087 1.621 5.107 1.949 1.556.482 1.788 2.333.718 5.5zm-3.09-15.13c-8.096-2.517-13.697-3.348-17.874-1.069-1.919.77-3.86 3.937-5.765 9.546-1.508 4.443-2.78 9.758-3.862 15.829-.958 5.558-1.444 9.752-1.419 12.6.015 1.507 1.193 3.089 3.481 4.796 2.272 1.697 4.934 3.03 8.113 4.015 6.057 1.871 11.146 1.743 15.153-.504 2.958-1.655 6.133-4.942 9.5-9.958 3.196-4.77 4.725-9.803 6.458-14.891 2.239-6.595 2.395-10.946.47-13.259-1.455-1.577-7.467-5.03-14.255-7.105z" class="B"/><path d="M144.894 135.312c-1.393-.477-3.088.898-3.705 2.998-.431 1.461-.274 2.972.41 3.942.277.395.617.661 1.013.793 1.388.471 3.09-.906 3.706-3 .428-1.465.273-2.97-.414-3.941-.279-.396-.617-.66-1.01-.792zm25.44-7.865c-.691-.304-1.629.321-2.046 1.375-.298.737-.291 1.524.017 2.05a1.03 1.03 0 0 0 .481.451c.689.309 1.631-.325 2.052-1.38.289-.735.285-1.515-.021-2.047a1.03 1.03 0 0 0-.483-.449zm138.683-5.938c-.38-.26-.776-.386-1.172-.366-1.388.071-2.362 1.95-2.134 4.111.163 1.509.856 2.842 1.814 3.49.384.256.782.378 1.174.36 1.386-.07 2.369-1.952 2.135-4.112-.166-1.507-.861-2.837-1.817-3.483zm-11.767-7.391c-.23-.155-.466-.23-.7-.219-.832.042-1.413 1.168-1.279 2.455.103.896.515 1.696 1.083 2.084.232.154.468.232.704.216.825-.041 1.412-1.164 1.274-2.454-.098-.902-.511-1.694-1.082-2.082zm-7.413 36.877c-.332-.234-.68-.339-1.025-.321-1.212.059-2.067 1.704-1.869 3.599.142 1.31.752 2.486 1.584 3.045.342.227.685.333 1.029.321 1.211-.066 2.072-1.709 1.867-3.599-.142-1.321-.746-2.489-1.586-3.045zm-27.175-21.781c-.413-.323-.862-.519-1.319-.571-1.631-.18-3.047 1.522-3.081 3.728-.022 1.529.601 2.985 1.633 3.8.41.329.857.522 1.322.575 1.632.178 3.048-1.524 3.08-3.729.019-1.53-.6-2.986-1.635-3.803zm-28.56-23.656c-1.391-.081-2.58 1.682-2.61 3.852-.017 1.513.517 2.914 1.391 3.659.351.301.728.466 1.121.49 1.382.079 2.586-1.68 2.605-3.853.013-1.516-.508-2.921-1.389-3.658-.346-.307-.727-.47-1.118-.49zm32.578 37.694c-.807-.052-1.508.977-1.525 2.253-.011.882.302 1.704.814 2.137.202.176.426.276.658.288.803.045 1.505-.985 1.522-2.259.006-.883-.298-1.702-.812-2.134-.203-.181-.424-.277-.657-.285z" class="C"/><path d="M97.101 151.536c-.853-4.162-2.903-8.407-5.959-12.603-2.771-3.843-8.755-7.172-18.078-9.378-7.756-1.893-15.659-3.347-23.648-5.127-7.845-1.781-12.068-3.901-12.588-6.452-.102-.516-.181-1.016-.242-1.506-.817-6.664 2.569-10.735 10.333-12.179.584-.105 1.191-.194 1.81-.271 8.568-1.081 20.418.519 35.479 4.805L79.65 80.703a139.24 139.24 0 0 0-18.853-.386c-6.244.296-12.458 1.013-18.614 2.153-8.052 1.497-14.053 3.518-18.121 5.976-6.071 4.948-8.158 12.308-6.193 22.043.965 4.753 2.728 9.178 5.202 13.27.664 1.103 1.367 2.18 2.133 3.234 2.773 3.739 8.388 6.818 16.815 8.811 6.979 1.623 14.095 2.83 21.173 4.331 7.062 1.56 10.778 3.686 11.203 6.331.797 5.008-4.377 8.584-15.478 10.635-8.649 1.603-18.661 1.834-29.981.693l3.322 19.627 1.563 9.237 9.76-2.187 35.644-7.995c6.139-1.357 11.039-4.499 14.529-9.081 3.43-4.473 4.574-9.833 3.347-15.86z" class="B"/><path d="M77.331 103.508c-.389-.319-.813-.497-1.248-.52-1.529-.099-2.829 1.733-2.829 4.004 0 1.588.613 3.063 1.585 3.849.395.317.814.491 1.25.524 1.533.096 2.828-1.743 2.828-4.014 0-1.584-.608-3.061-1.586-3.843zm-46.267 18.036c-.376-.218-.759-.307-1.127-.265-1.306.132-2.108 1.855-1.752 3.768.245 1.33.987 2.482 1.927 3.008.381.212.761.301 1.129.258 1.299-.13 2.11-1.86 1.754-3.774-.246-1.324-.986-2.48-1.931-2.995zm57.747 27.812c-.581-.388-1.178-.575-1.778-.559-2.114.054-3.634 2.733-3.319 5.846.221 2.163 1.248 4.109 2.699 5.058.58.392 1.185.585 1.778.563 2.114-.057 3.639-2.73 3.32-5.848-.225-2.167-1.25-4.111-2.698-5.06zm-58.644-43.395c.164.09.321.161.481.23.797.356 1.591.512 2.36.427 3.288-.335 5.306-4.684 4.411-9.488-.619-3.349-2.484-6.246-4.853-7.568-.957-.534-1.908-.754-2.839-.658-2.205.229-3.832 2.263-4.402 5.021-.281 1.361-.306 2.888-.015 4.468.625 3.352 2.49 6.256 4.857 7.568zm12.144 61.235c-.587-.425-1.204-.632-1.821-.632-2.205.004-3.862 2.738-3.626 5.975.164 2.253 1.18 4.304 2.652 5.333.596.418 1.208.631 1.829.631 2.192-.008 3.851-2.744 3.619-5.98-.168-2.264-1.176-4.304-2.654-5.327zm39.362-1.61c-.3-.175-.608-.242-.91-.209-1.048.105-1.695 1.496-1.41 3.032.202 1.073.795 1.999 1.553 2.417.304.173.61.242.912.214 1.048-.108 1.697-1.496 1.41-3.033-.2-1.077-.791-2.001-1.555-2.421z" class="C"/><path d="M129.084 115.877c-2.371 1.135-4.944 1.943-7.698 2.372-3.203.489-5.415.136-6.844-.989-.421-.348-.954-1.459-1.612-3.287-.65-1.834-1.112-3.645-1.435-5.538-.54-3.167-.383-5.135.527-5.871 1.529-1.23 4.353-2.203 8.324-2.827 3.47-.538 5.867-.323 7.343.63.713.481 1.427 2.664 2.097 6.556.9 5.332.659 8.332-.702 8.954zm4.436-21.413c-4.074-1.816-27.471-1.485-43.483 5.177 1.323 6.558 4.755 25.55 4.746 25.818.008.02 4.198 27.465 4.047 27.607l15.211-2.244-8.444-25.682c6.167.863 12.264.493 20.328-.756 6.223-.973 10.62-2.132 13.096-3.406.708-.345 1.074-1.867 1.167-4.598.026-2.706-.217-5.678-.769-8.956-1.276-7.446-3.275-11.793-5.9-12.961z" class="B"/><path d="M134.962 102.029c-.302-.171-.608-.238-.902-.206-1.044.122-1.67 1.506-1.37 3.029.209 1.058.815 1.981 1.568 2.384.308.165.612.23.908.2 1.042-.124 1.665-1.508 1.363-3.027-.208-1.058-.811-1.978-1.567-2.38zm-32.255 41.496c-.334-.189-.673-.263-.998-.232-1.152.134-1.846 1.671-1.512 3.353.232 1.172.9 2.182 1.738 2.635.338.18.676.26.995.221 1.159-.132 1.848-1.663 1.514-3.345-.229-1.176-.897-2.188-1.737-2.632zm2.363-34.661c-.494-.339-1.019-.538-1.555-.597-1.901-.211-3.438 1.454-3.362 3.638.055 1.525.857 2.992 2.09 3.821.496.337 1.024.542 1.562.599 1.892.213 3.434-1.452 3.351-3.642-.055-1.528-.853-2.988-2.086-3.819z" class="C"/><g filter="url(#B)"><path d="M125.727 178.723l10.885 56.245c3.706 0 8.782-19.476 15.229-58.429h4.345c2.896 0 4.345 2.169 4.345 6.507-8.253 43.261-14.047 64.891-17.379 64.891h-21.77l-13.034-69.214h17.379z" fill="#ffacea"/><path d="M190.476 176.539h4.951c16.476 0 24.713 6.569 24.713 19.709L188 225.765l2.476 2.463h9.903c14.015 0 24.729-1.642 32.141-4.927v2.464c-2.211 11.497-4.687 17.246-7.428 17.246l-54.424 4.926v-19.709l32.187-31.98-2.476-2.464h-4.952l-29.711 2.464c0-13.14 8.253-19.709 24.76-19.709z" fill="#ffacea"/><path d="M128.338 178.218l-.417-2.154h-2.194-17.379-3.207l.594 3.151 13.034 69.215.408 2.167h2.205 21.77c.954 0 1.716-.39 2.24-.778.518-.385.936-.866 1.273-1.327.672-.921 1.298-2.154 1.898-3.576 1.213-2.876 2.545-7.073 4.002-12.513 2.922-10.913 6.448-27.213 10.578-48.858l.047-.247v-.252c0-2.381-.382-4.632-1.534-6.357-1.278-1.915-3.249-2.81-5.47-2.81h-4.345-2.255l-.368 2.225c-3.22 19.458-6.086 33.969-8.593 43.587-.936 3.589-1.805 6.433-2.603 8.571l-9.684-50.044zm93.601 19.988l.861-.79v-1.168c0-7.16-2.274-12.949-7.179-16.861-4.791-3.821-11.673-5.508-20.193-5.508h-4.952c-8.535 0-15.429 1.687-20.226 5.506-4.914 3.911-7.193 9.702-7.193 16.863v2.889l2.879-.239 29.602-2.454h3.347l-30.091 29.898-.786.78v1.106 19.709 2.911l2.9-.262 54.329-4.919c1.636-.049 2.916-.94 3.831-1.947.932-1.028 1.706-2.407 2.379-3.969 1.354-3.143 2.568-7.68 3.685-13.484l.048-.249v-.253-2.464-4.087l-3.737 1.656c-6.911 3.062-17.188 4.699-31.064 4.699h-8.235l29.795-27.363z" stroke="#da2caf" stroke-width="5.319"/></g><path d="M210.236 188.48c-.559.311-.954.722-1.16 1.224-.722 1.761 1.139 4.118 4.07 5.164 2.05.723 4.181.685 5.58-.101.558-.319.949-.736 1.154-1.23.724-1.757-1.137-4.128-4.07-5.164-2.048-.72-4.177-.677-5.574.107zm-97.786-1.552c-.56.311-.955.723-1.16 1.224-.722 1.761 1.139 4.118 4.069 5.164 2.05.724 4.181.684 5.581-.101.557-.318.948-.735 1.154-1.23.723-1.757-1.138-4.127-4.07-5.164-2.048-.72-4.178-.677-5.574.107zm13.536 49.625c-.46.256-.785.594-.953 1.007-.594 1.447.935 3.385 3.345 4.244 1.685.595 3.436.563 4.587-.082.458-.262.78-.605.949-1.012.594-1.444-.936-3.392-3.346-4.245-1.683-.592-3.434-.556-4.582.088zm59.496-2.397c-.594-.192-1.15-.2-1.644-.014-1.734.656-2.177 3.55-.974 6.333.847 1.942 2.291 3.435 3.782 3.91.597.185 1.154.187 1.644.004 1.732-.652 2.184-3.554.973-6.332-.848-1.939-2.295-3.428-3.781-3.901zm-11.085-47.296c-.46.359-.807.793-1.02 1.291-.75 1.748.392 3.764 2.495 4.417 1.472.451 3.093.169 4.245-.734.459-.365.803-.804 1.016-1.296.75-1.744-.39-3.772-2.496-4.417-1.471-.446-3.091-.162-4.24.739zm45.152 50.16c-.953-.401-1.951-.611-2.954-.612-3.523-.004-6.073 2.613-5.588 5.725.35 2.173 2.05 4.134 4.448 5.135.965.395 1.967.6 2.96.603 3.518.007 6.089-2.615 5.589-5.725-.356-2.17-2.062-4.128-4.455-5.126z" fill="#da2caf"/><defs><filter id="B" x="96.616" y="171.22" width="141.223" height="87.858" filterUnits="userSpaceOnUse" color-interpolation-filters="sRGB"><feFlood flood-opacity="0" result="A"/><feColorMatrix in="SourceAlpha" values="0 0 0 0 0 0 0 0 0 0 0 0 0 0 0 0 0 0 127 0" result="B"/><feOffset dx="-5.31884" dy="5.31884"/><feComposite in2="B" operator="out"/><feColorMatrix values="0 0 0 0 0.854902 0 0 0 0 0.172549 0 0 0 0 0.686275 0 0 0 1 0"/><feBlend in2="A"/><feBlend in="SourceGraphic"/></filter><path id="C" d="M162.5 309.875c-21.898 0-43.143-4.098-63.147-12.178-19.319-7.804-36.667-18.975-51.563-33.202s-26.592-30.796-34.763-49.247C4.565 196.143.275 175.852.275 154.937a148.02 148.02 0 0 1 12.751-60.31c8.171-18.451 19.867-35.02 34.763-49.247s32.245-25.398 51.564-33.202C119.357 4.097 140.602 0 162.5 0s43.143 4.097 63.147 12.178c19.318 7.804 36.667 18.975 51.563 33.202s26.593 30.796 34.764 49.247c8.46 19.105 12.751 39.397 12.751 60.31a148.03 148.03 0 0 1-12.751 60.311c-8.171 18.451-19.868 35.019-34.764 49.247s-32.245 25.398-51.563 33.202c-20.004 8.08-41.249 12.178-63.147 12.178zm0-297.975c-20.221 0-39.834 3.781-58.293 11.238C86.373 30.342 70.356 40.656 56.6 53.794S32.044 82.23 24.501 99.262a136.64 136.64 0 0 0-11.767 55.675c0 19.313 3.959 38.045 11.767 55.675 7.543 17.033 18.342 32.33 32.098 45.468s29.773 23.453 47.607 30.657c18.459 7.457 38.072 11.238 58.293 11.238s39.834-3.781 58.293-11.238c17.834-7.204 33.851-17.518 47.607-30.657s24.556-28.435 32.099-45.468c7.807-17.63 11.766-36.362 11.766-55.675s-3.959-38.044-11.766-55.675c-7.543-17.032-18.343-32.329-32.099-45.468s-29.773-23.452-47.607-30.656C202.334 15.681 182.721 11.9 162.5 11.9z"/><path id="D" d="M192.256 79.891c9.108 0 16.492-7.052 16.492-15.752s-7.384-15.752-16.492-15.752-16.493 7.052-16.493 15.752 7.384 15.752 16.493 15.752z"/><path id="E" d="M91.746 262.501c4.593 0 8.316-3.556 8.316-7.942s-3.723-7.942-8.316-7.942-8.315 3.556-8.315 7.942 3.723 7.942 8.316 7.942z"/><path id="F" d="M165.091 103.362c-4.345 0-7.868-3.365-7.868-7.516s3.523-7.516 7.868-7.516 7.869 3.365 7.869 7.516-3.523 7.516-7.869 7.516z"/><path id="G" d="M59.506 88.337c-3.062 0-5.544-2.37-5.544-5.295s2.482-5.295 5.544-5.295 5.544 2.37 5.544 5.295-2.482 5.295-5.544 5.295z"/><path id="H" d="M280.367 217.897c-4.346 0-7.869-3.364-7.869-7.515s3.523-7.515 7.869-7.515 7.869 3.364 7.869 7.515-3.523 7.515-7.869 7.515z"/></defs></svg>