<svg xmlns="http://www.w3.org/2000/svg" width="15" height="16" fill="none" xmlns:v="https://vecta.io/nano"><path d="M8.161 12.559a.9.9 0 0 0 .275-.661.9.9 0 0 0-.275-.661.9.9 0 0 0-.661-.275.9.9 0 0 0-.661.275.9.9 0 0 0-.275.662.9.9 0 0 0 .275.661.9.9 0 0 0 .661.275.9.9 0 0 0 .661-.275zM4.195 8.593a.9.9 0 0 0 .275-.661.9.9 0 0 0-.275-.661.9.9 0 0 0-.661-.275.9.9 0 0 0-.661.275.9.9 0 0 0-.275.661.9.9 0 0 0 .275.661.9.9 0 0 0 .661.275.9.9 0 0 0 .661-.275zm3.966 0a.9.9 0 0 0 .275-.661.9.9 0 0 0-.275-.661.9.9 0 0 0-.661-.275.9.9 0 0 0-.661.275.9.9 0 0 0-.275.661.9.9 0 0 0 .275.661.9.9 0 0 0 .661.275.9.9 0 0 0 .661-.275zm3.966 0a.9.9 0 0 0 .275-.661.9.9 0 0 0-.275-.661.9.9 0 0 0-.662-.275.9.9 0 0 0-.66.275.9.9 0 0 0-.275.661.9.9 0 0 0 .275.661.9.9 0 0 0 .661.275.9.9 0 0 0 .661-.275zM8.161 4.627a.9.9 0 0 0 .275-.661.9.9 0 0 0-.275-.661.9.9 0 0 0-.661-.275.9.9 0 0 0-.661.275.9.9 0 0 0-.275.661.9.9 0 0 0 .275.661.9.9 0 0 0 .661.275.9.9 0 0 0 .661-.275zm.22 10.356a1.2 1.2 0 0 1-.882.364c-.345 0-.639-.121-.881-.364L.45 8.813a1.2 1.2 0 0 1-.364-.882c0-.345.121-.639.364-.881L6.619.881a1.2 1.2 0 0 1 .882-.364c.345 0 .639.121.881.364l6.169 6.169a1.2 1.2 0 0 1 .364.882c0 .345-.121.639-.364.881l-6.169 6.169z" fill="#f57f31"/></svg>